<svg xmlns="http://www.w3.org/2000/svg" xmlns:xlink="http://www.w3.org/1999/xlink" width="13" height="13" viewBox="0 0 13 13">
    <defs>
        <path id="a" d="M3.714 3A.714.714 0 0 0 3 3.714c0 6.706 5.437 12.143 12.143 12.143.395 0 .714-.32.714-.714v-2.5a.713.713 0 0 0-.714-.714 8.185 8.185 0 0 1-2.552-.406.712.712 0 0 0-.725.175l-1.572 1.573a10.772 10.772 0 0 1-4.706-4.704l1.571-1.576a.714.714 0 0 0 .175-.725 8.191 8.191 0 0 1-.406-2.552A.713.713 0 0 0 6.214 3h-2.5z"/>
    </defs>
    <g fill="none" fill-rule="evenodd" transform="translate(-3 -3)">
        <use fill="#333" xlink:href="#a"/>
    </g>
</svg>
