<?xml version="1.0" encoding="UTF-8"?>
<svg width="144px" height="56px" viewBox="0 0 144 56" version="1.1" xmlns="http://www.w3.org/2000/svg" xmlns:xlink="http://www.w3.org/1999/xlink">
    <!-- Generator: Sketch 48.1 (47250) - http://www.bohemiancoding.com/sketch -->
    <title>icon-ebank</title>
    <desc>Created with Sketch.</desc>
    <defs></defs>
    <g id="Page-1" stroke="none" stroke-width="1" fill="none" fill-rule="evenodd">
        <g id="icon-ebank">
            <g>
                <rect id="Bounds" x="0" y="0" width="144" height="56"></rect>
                <path d="M88.7057534,40.4065753 L56.0750685,40.4065753 C53.7928767,40.4065753 51.900274,38.7282192 51.5528767,36.5424658 L93.2279452,36.5424658 C92.8805479,38.7282192 90.9879452,40.4065753 88.7057534,40.4065753 M56.0750685,10.4893151 L88.7057534,10.4893151 C91.2334247,10.4893151 93.290411,12.5463014 93.290411,15.0750685 L93.290411,35.0526027 L51.490411,35.0526027 L51.490411,15.0750685 C51.490411,12.5463014 53.5473973,10.4893151 56.0750685,10.4893151 M88.7057534,9 L56.0750685,9 C52.7254795,9 50,11.7249315 50,15.0750685 L50,35.8219178 C50,39.1715068 52.7254795,41.8969863 56.0750685,41.8969863 L71.6454795,41.8969863 L71.6454795,46.4871233 L61.0136986,46.4871233 C60.6032877,46.4871233 60.269589,46.8213699 60.269589,47.2323288 C60.269589,47.6432877 60.6032877,47.9769863 61.0136986,47.9769863 L83.7671233,47.9769863 C84.1780822,47.9769863 84.5123288,47.6432877 84.5123288,47.2323288 C84.5123288,46.8213699 84.1780822,46.4871233 83.7671233,46.4871233 L73.1358904,46.4871233 L73.1358904,41.8969863 L88.7057534,41.8969863 C92.0553425,41.8969863 94.7808219,39.1715068 94.7808219,35.8219178 L94.7808219,15.0750685 C94.7808219,11.7249315 92.0553425,9 88.7057534,9 M58.7779726,20.434411 L63.9768767,20.434411 L63.9768767,22.7664658 C63.9768767,23.1768767 64.3116712,23.5111233 64.7226301,23.5111233 C65.133589,23.5111233 65.4672877,23.1768767 65.4672877,22.7664658 L65.4672877,20.434411 L86.1911233,20.434411 C86.6020822,20.434411 86.9363288,20.1001644 86.9363288,19.6897534 C86.9363288,19.2787945 86.6020822,18.9445479 86.1911233,18.9445479 L65.4672877,18.9445479 L65.4672877,16.6124932 C65.4672877,16.2015342 65.133589,15.8672877 64.7226301,15.8672877 C64.3116712,15.8672877 63.9768767,16.2015342 63.9768767,16.6124932 L63.9768767,18.9445479 L58.7779726,18.9445479 C58.3670137,18.9445479 58.0333151,19.2787945 58.0333151,19.6897534 C58.0333151,20.1001644 58.3670137,20.434411 58.7779726,20.434411 M86.1912877,26.7480548 L79.0438904,26.7480548 L79.0438904,24.4883288 C79.0438904,24.0773699 78.7101918,23.7436712 78.2992329,23.7436712 C77.888274,23.7436712 77.5534795,24.0773699 77.5534795,24.4883288 L77.5534795,26.7480548 L58.8685479,26.7480548 C58.457589,26.7480548 58.1227945,27.0823014 58.1227945,27.4927123 C58.1227945,27.9036712 58.457589,28.2379178 58.8685479,28.2379178 L77.5534795,28.2379178 L77.5534795,30.6417534 C77.5534795,31.0527123 77.888274,31.3875068 78.2992329,31.3875068 C78.7101918,31.3875068 79.0438904,31.0527123 79.0438904,30.6417534 L79.0438904,28.2379178 L86.1912877,28.2379178 C86.6022466,28.2379178 86.9359452,27.9036712 86.9359452,27.4927123 C86.9359452,27.0823014 86.6022466,26.7480548 86.1912877,26.7480548" fill="#6A64AC"></path>
            </g>
        </g>
    </g>
</svg>