<svg xmlns="http://www.w3.org/2000/svg" width="20" height="18" viewBox="0 0 20 18">
    <path fill="#6A64AC" fill-rule="evenodd" d="M17.251 13.958H2.75a1.99 1.99 0 0 1-1.952-1.62h18.406a1.991 1.991 0 0 1-1.952 1.62M2.75.758h14.502c1.097 0 1.99.894 1.99 1.99v8.83H.76v-8.83c0-1.096.89-1.99 1.988-1.99M17.251 0H2.75A2.752 2.752 0 0 0 0 2.748v9.22a2.752 2.752 0 0 0 2.75 2.75h6.87v1.943H4.944a.379.379 0 1 0 0 .758h10.112a.379.379 0 1 0 0-.758H10.38v-1.944h6.871A2.752 2.752 0 0 0 20 11.97v-9.22A2.752 2.752 0 0 0 17.251 0M3.627 5.042h1.991V3.051H3.627v1.991zm-.165.76h2.322a.596.596 0 0 0 .595-.595v-2.32a.596.596 0 0 0-.595-.596H3.462a.596.596 0 0 0-.595.595v2.321c0 .328.267.595.595.595zm10.864-.76h1.991V3.051h-1.991v1.991zm-.165.76h2.321a.596.596 0 0 0 .595-.595v-2.32a.596.596 0 0 0-.595-.596h-2.321a.596.596 0 0 0-.595.595v2.321c0 .328.267.595.595.595zm-5.184-.76h1.99V3.051h-1.99v1.991zm-.165.76h2.321a.596.596 0 0 0 .595-.595v-2.32a.596.596 0 0 0-.595-.596H8.812a.596.596 0 0 0-.595.595v2.321c0 .328.267.595.595.595zM3.627 9.36h1.991V7.368H3.627v1.991zm-.165.76h2.322a.596.596 0 0 0 .595-.595v-2.32a.597.597 0 0 0-.595-.596H3.462a.596.596 0 0 0-.595.595v2.321c0 .328.267.595.595.595zm10.864-.76h1.991V7.368h-1.991v1.991zm-.165.76h2.321a.596.596 0 0 0 .595-.595v-2.32a.596.596 0 0 0-.595-.596h-2.321a.596.596 0 0 0-.595.595v2.321c0 .328.267.595.595.595zm-5.184-.76h1.99V7.368h-1.99v1.991zm-.165.76h2.321a.596.596 0 0 0 .595-.595v-2.32a.596.596 0 0 0-.595-.596H8.812a.596.596 0 0 0-.595.595v2.321c0 .328.267.595.595.595z"/>
</svg>
