<?xml version="1.0" encoding="UTF-8"?>
<svg width="144px" height="56px" viewBox="0 0 144 56" version="1.1" xmlns="http://www.w3.org/2000/svg" xmlns:xlink="http://www.w3.org/1999/xlink">
    <!-- Generator: Sketch 48.1 (47250) - http://www.bohemiancoding.com/sketch -->
    <title>icon-team</title>
    <desc>Created with Sketch.</desc>
    <defs></defs>
    <g id="Page-1" stroke="none" stroke-width="1" fill="none" fill-rule="evenodd">
        <g id="icon-team">
            <g>
                <rect id="Bounds" x="0" y="0" width="144" height="56"></rect>
                <path d="M81.8960594,33.5774126 C81.7190851,33.7113686 81.6145341,33.9199259 81.6145341,34.1410077 C81.6145341,37.1267 81.6477509,44.290619 81.658097,46.580394 L67.0928412,46.4747539 L67.0928412,42.0803463 C67.0928412,41.8913922 67.0149725,41.7095171 66.880472,41.5761057 C66.745427,41.4432389 66.5668192,41.3751719 66.3713306,41.3724492 C66.3669743,41.3740828 64.9560809,41.3838844 63.3943509,40.4336687 C62.5857146,39.9414079 61.961676,39.1066338 61.5903023,38.4994759 C64.7627705,37.8776155 65.9079303,35.5905632 66.0642122,34.3620894 C66.0898054,34.1600664 66.0271837,33.9569544 65.8921387,33.8039397 C65.7576383,33.6525586 65.5648724,33.5654328 65.3623049,33.5654328 L65.3590377,33.5654328 L59.8777357,33.589937 L59.7949662,31.8348966 C59.776452,31.4477313 59.4524529,31.1368011 59.062565,31.1613053 C58.2343253,31.1907102 57.0515926,31.2310059 56.4754732,31.2484311 C56.7695228,30.3782621 57.2830205,28.9793485 57.8259231,27.5009325 C58.5022372,25.6593109 59.2008772,23.7561567 59.5308661,22.7199042 C61.4617917,16.650503 65.5044289,9.4147052 73.7982607,9.4147052 C81.207221,9.4147052 87.2357819,15.4432661 87.2357819,22.852771 C87.2357819,27.1012429 85.2890648,31.0110132 81.8960594,33.5774126 M88.6499426,22.852771 C88.6499426,14.6629457 81.988086,8 73.7982607,8 C66.6604794,8 61.1143776,13.0756225 58.1820498,22.2902651 C57.8618625,23.2976571 57.1681233,25.1866534 56.4972546,27.0135726 C55.9276697,28.5660454 55.3891234,30.0324816 55.0961629,30.9113631 C54.8761702,31.5707965 55.083094,32.0009802 55.2257625,32.1997359 C55.4386762,32.4948746 55.7844567,32.6702152 56.1514741,32.6702152 C56.3436954,32.6702152 57.5934061,32.6288305 58.4140223,32.5999701 L58.4967918,34.3348626 C58.5147615,34.7122262 58.8256917,35.0079094 59.2035999,35.0079094 L59.2068671,35.0079094 L64.3859514,34.9844943 C63.9672031,35.8225356 62.9402077,37.0422969 60.4761811,37.2219938 C60.3966788,37.2285283 60.3182656,37.247587 60.2452977,37.2797147 C60.0029791,37.3848102 59.836351,37.6249507 59.8183813,37.8879617 C59.7813528,38.4363097 61.0038367,40.6351471 62.6581379,41.6419946 C63.8555731,42.3705842 64.979496,42.6374069 65.6775914,42.7332453 L65.6775914,47.1772057 C65.6775914,47.5649155 65.9917889,47.8818356 66.3800432,47.8840138 L82.3643606,48 L82.3698059,48 C82.5565819,48 82.7368234,47.9264876 82.8686011,47.7930762 C83.0025571,47.6596648 83.0782476,47.4777897 83.0771585,47.2893802 C83.0771585,47.2893802 83.0325066,38.2963639 83.0303284,34.4884218 C86.6068426,31.6502988 88.6499426,27.4301428 88.6499426,22.852771 M76.1039906,24.3242713 L75.0699162,24.3242713 L75.0699162,19.7528894 C75.0699162,19.6352696 75.0339768,19.5296296 74.9833349,19.4321576 C74.894031,19.1435534 74.6353763,18.9295506 74.3179116,18.9295506 L72.6205921,18.9295506 C72.2296151,18.9295506 71.912695,19.2464707 71.912695,19.6379923 C71.912695,20.0278803 72.2296151,20.3448004 72.6205921,20.3448004 L73.6546665,20.3448004 L73.6546665,24.3242713 L72.6205921,24.3242713 C72.2296151,24.3242713 71.912695,24.6411914 71.912695,25.0321685 C71.912695,25.422601 72.2296151,25.7395211 72.6205921,25.7395211 L76.1039906,25.7395211 C76.4949676,25.7395211 76.8113432,25.422601 76.8113432,25.0321685 C76.8113432,24.6411914 76.4949676,24.3242713 76.1039906,24.3242713 M74.3980129,29.3146739 C70.2039946,29.3146739 66.792475,25.9026097 66.792475,21.709136 C66.792475,17.5151177 70.2039946,14.103598 74.3980129,14.103598 C78.5920312,14.103598 82.0035508,17.5151177 82.0035508,21.709136 C82.0035508,25.9026097 78.5920312,29.3146739 74.3980129,29.3146739 M74.3980129,12.6883483 C69.4242187,12.6883483 65.3777698,16.7353418 65.3777698,21.709136 C65.3777698,26.6829301 69.4242187,30.7304682 74.3980129,30.7304682 C79.3718071,30.7304682 83.418256,26.6829301 83.418256,21.709136 C83.418256,16.7353418 79.3718071,12.6883483 74.3980129,12.6883483 M74.3581529,17.9810229 C74.7485854,17.9810229 75.0655055,17.6641028 75.0655055,17.2736703 L75.0655055,17.178921 C75.0655055,16.787944 74.7485854,16.4715684 74.3581529,16.4715684 C73.9671758,16.4715684 73.6508003,16.787944 73.6508003,17.178921 L73.6508003,17.2736703 C73.6508003,17.6641028 73.9671758,17.9810229 74.3581529,17.9810229" fill="#DB0011"></path>
            </g>
        </g>
    </g>
</svg>