<svg xmlns="http://www.w3.org/2000/svg" width="20" height="17" viewBox="0 0 20 17">
    <path fill="#1690D3" fill-rule="evenodd" d="M14.778 9.495l1.544-2.31 1.544 2.31h-3.088zm-4.515 4.908c.562 0 1.059.34 1.272.848H8.991c.213-.508.71-.848 1.272-.848zm6.08-2.106a2.771 2.771 0 0 1-2.632-1.894h5.265a2.773 2.773 0 0 1-2.632 1.894zM2.09 3.612l1.545-2.31 1.544 2.31h-3.09zm1.567 2.803a2.773 2.773 0 0 1-2.633-1.894h5.264a2.773 2.773 0 0 1-2.631 1.894zm15.871 8.836h-7.04a2.287 2.287 0 0 0-1.744-1.7v-9.32l4.922 2.3-1.982 2.964h-.543a.453.453 0 0 0-.45.514 3.696 3.696 0 0 0 3.653 3.196 3.695 3.695 0 0 0 3.652-3.197.456.456 0 0 0-.45-.513h-.587l-2.233-3.34a.368.368 0 0 0-.066-.074.443.443 0 0 0-.195-.18L3.927.042a.446.446 0 0 0-.475.06.451.451 0 0 0-.222.171L.997 3.613H.454a.452.452 0 0 0-.45.513 3.697 3.697 0 0 0 3.653 3.198 3.696 3.696 0 0 0 3.652-3.198.456.456 0 0 0-.45-.514h-.587L4.84 1.472l4.995 2.334v9.737a2.274 2.274 0 0 0-1.798 1.708H.584a.455.455 0 0 0 0 .91h18.944a.455.455 0 0 0 0-.91z"/>
</svg>
