<svg xmlns="http://www.w3.org/2000/svg" width="24" height="13" viewBox="0 0 24 13">
    <path fill="#BC2F7F" fill-rule="evenodd" d="M17.904 0a6.08 6.08 0 0 0-5.8 4.225l-1.093 3.518a5.18 5.18 0 0 1-4.916 3.54A5.194 5.194 0 0 1 .907 6.095 5.194 5.194 0 0 1 6.095.906c1.847 0 3.569.996 4.493 2.6a.458.458 0 0 0 .62.166.457.457 0 0 0 .167-.62A6.115 6.115 0 0 0 6.095 0 6.102 6.102 0 0 0 0 6.095a6.102 6.102 0 0 0 6.095 6.095 6.094 6.094 0 0 0 5.78-4.168l1.094-3.523A5.173 5.173 0 0 1 17.904.906a5.194 5.194 0 0 1 5.188 5.19 5.193 5.193 0 0 1-5.188 5.187 5.172 5.172 0 0 1-4.6-2.797.45.45 0 0 0-.612-.194.447.447 0 0 0-.223.266.449.449 0 0 0 .03.346 6.074 6.074 0 0 0 5.405 3.286A6.102 6.102 0 0 0 24 6.095 6.102 6.102 0 0 0 17.904 0M7.06 6.979c.06.085.086.174.074.257-.003.016-.078.375-.653.508v-1.12c.346.114.505.254.579.355zM5.573 5.476c-.347-.114-.506-.254-.58-.355a.342.342 0 0 1-.074-.257c.003-.016.078-.375.654-.507v1.12zM7.25 4.89a.454.454 0 0 0 .892-.168c-.008-.046-.226-1.116-1.662-1.298v-.347a.454.454 0 0 0-.908 0v.362c-1.11.169-1.498.89-1.551 1.294-.02.108-.06.49.216.893.254.37.703.634 1.335.787v1.34c-.658-.13-.769-.53-.772-.545a.454.454 0 0 0-.89.173c.007.046.225 1.116 1.662 1.297v.436a.454.454 0 0 0 .908 0v-.451c1.109-.168 1.497-.89 1.55-1.293.02-.107.061-.489-.216-.893-.254-.37-.702-.634-1.334-.787v-1.34c.654.129.766.526.77.54zm6.433 1.124a.426.426 0 0 0-.142.298.434.434 0 0 0 .72.343c.33-.297.837-.448 1.506-.448.692 0 1.391.168 1.702.254.103.608.319 2.406-.53 3.17a.432.432 0 0 0 .577.641c1.017-.913.984-2.618.855-3.625.41.096.988.2 1.595.2.901 0 1.608-.225 2.1-.67a.432.432 0 0 0-.289-.751.43.43 0 0 0-.288.11c-.33.298-.838.449-1.508.449-.69 0-1.39-.168-1.702-.254-.103-.608-.319-2.405.53-3.17a.426.426 0 0 0 .143-.299.432.432 0 0 0-.72-.343c-1.016.916-.981 2.62-.853 3.627-.41-.097-.989-.2-1.597-.2-.9 0-1.606.224-2.1.668m6.927-.9a.437.437 0 1 0 .65-.585l-1.472-1.634a.436.436 0 0 0-.762.27.435.435 0 0 0 .113.316l1.47 1.633zm-2.175-.94a.438.438 0 0 0-.032.618l.826.916a.436.436 0 0 0 .618.032.438.438 0 0 0 .031-.617l-.825-.916a.439.439 0 0 0-.618-.033m-3.294 2.904a.44.44 0 0 0-.616-.032.434.434 0 0 0-.033.618l1.472 1.633a.437.437 0 1 0 .65-.584L15.14 7.077zm2.175.94a.432.432 0 0 0 .144-.301.433.433 0 0 0-.112-.316l-.825-.916a.436.436 0 0 0-.618-.032.438.438 0 0 0-.031.617l.825.917a.44.44 0 0 0 .617.032"/>
</svg>
