<svg xmlns="http://www.w3.org/2000/svg" width="20" height="20" viewBox="0 0 20 20">
    <path fill="#BC2F7F" fill-rule="evenodd" d="M4.757 18.448a.393.393 0 1 1 .002-.785.393.393 0 0 1-.002.785M4.93 1.515a.384.384 0 0 1-.173.045.392.392 0 1 1 .393-.392c0 .104-.04.202-.087.26a.273.273 0 0 0-.133.087M19.612 5H8.952l-3.21-3.21c.12-.187.183-.401.183-.622A1.17 1.17 0 0 0 4.757 0 1.17 1.17 0 0 0 3.59 1.168a1.17 1.17 0 0 0 1.167 1.168c.123 0 .247-.022.37-.063l3.39 3.389a.392.392 0 0 0 .274.114h10.434v7.68H8.791a.39.39 0 0 0-.274.114L5.15 16.957a1.167 1.167 0 0 0-1.561 1.098 1.17 1.17 0 0 0 1.167 1.169 1.17 1.17 0 0 0 .998-1.774l3.197-3.219h10.66a.388.388 0 0 0 .388-.387V5.387A.388.388 0 0 0 19.612 5M4.757 7.308a.393.393 0 1 1 .002-.786.393.393 0 0 1-.002.786zm0 4.586a.392.392 0 1 1 0 .785.392.392 0 0 1 0-.785zm1.147.202a1.16 1.16 0 0 0-1.147-.977 1.17 1.17 0 0 0-1.167 1.167 1.163 1.163 0 1 0 2.172.586h12.535a.388.388 0 0 0 .387-.389v-5.76a.388.388 0 0 0-.387-.388L5.768 6.34a1.163 1.163 0 0 0-2.178.575 1.17 1.17 0 0 0 1.167 1.168c.57 0 1.052-.414 1.146-.973H17.91v4.986H5.904zM1.167 9.104a.393.393 0 1 1 0 .787.393.393 0 0 1 0-.787m10.855-1.021c.78 0 1.415.635 1.415 1.414a1.416 1.416 0 0 1-2.83 0c0-.78.635-1.414 1.415-1.414m0 3.603c1.207 0 2.19-.982 2.19-2.189s-.983-2.189-2.19-2.189A2.2 2.2 0 0 0 9.876 9.11H2.264c-.165-.47-.6-.781-1.097-.781a1.17 1.17 0 0 0 0 2.336c.498 0 .932-.311 1.097-.78h7.612a2.199 2.199 0 0 0 2.146 1.801"/>
</svg>
