<svg xmlns="http://www.w3.org/2000/svg" width="20" height="24" viewBox="0 0 20 24">
    <path fill="#1690D3" fill-rule="evenodd" d="M18.785 8.534a.884.884 0 0 1-.589.356.886.886 0 0 1-.67-.162.897.897 0 0 1-.193-1.259.891.891 0 0 1 .58-.356l.153-.012c.19 0 .37.06.526.175a.89.89 0 0 1 .357.589.896.896 0 0 1-.164.669m-8.524 4.44a1.687 1.687 0 0 1-1.273-.31 1.696 1.696 0 0 1-.678-1.117A1.712 1.712 0 0 1 10 9.575c.836 0 1.562.623 1.69 1.448a1.712 1.712 0 0 1-1.43 1.952m.273 7.408c.193.142.32.35.356.59a.893.893 0 0 1-.89 1.038.89.89 0 0 1-.531-.175.893.893 0 0 1-.357-.59.889.889 0 0 1 .163-.67.892.892 0 0 1 .58-.356l.153-.012c.188 0 .37.061.526.175M9.468 2.667a.89.89 0 0 1-.357-.59.886.886 0 0 1 .163-.668.89.89 0 0 1 .58-.357l.153-.012c.189 0 .37.06.526.175.193.142.32.35.356.589a.886.886 0 0 1-.163.668.893.893 0 0 1-.729.369.887.887 0 0 1-.53-.174m-6.8 5.867a.884.884 0 0 1-.59.356.888.888 0 0 1-.67-.162.899.899 0 0 1 .386-1.616l.153-.011c.437.002.817.33.884.764a.893.893 0 0 1-.164.669m17.31-.828a1.927 1.927 0 0 0-.77-1.27 1.927 1.927 0 0 0-1.442-.352 1.925 1.925 0 0 0-1.618 2.19l-3.82 1.557a2.729 2.729 0 0 0-1.806-1.233V3.8a1.925 1.925 0 0 0 1.398-2.156 1.928 1.928 0 0 0-.771-1.27A1.926 1.926 0 0 0 9.705.023a1.937 1.937 0 0 0-1.623 2.214 1.928 1.928 0 0 0 1.397 1.569l.006 4.778a2.733 2.733 0 0 0-1.805 1.25L3.856 8.275c.03-.197.03-.389.002-.57a1.954 1.954 0 0 0-2.213-1.622c-.513.08-.964.352-1.27.77-.305.419-.43.93-.352 1.443.079.513.352.963.77 1.27a1.928 1.928 0 0 0 1.444.352 1.93 1.93 0 0 0 1.205-.69L7.3 10.802a2.703 2.703 0 0 0-.018.903c.112.727.5 1.366 1.092 1.8.334.244.705.406 1.105.483v5.26a1.91 1.91 0 0 0-1.045.715c-.306.419-.43.93-.352 1.444.08.512.353.963.77 1.269a1.918 1.918 0 0 0 1.444.353c.513-.08.964-.354 1.27-.772.306-.418.432-.931.352-1.443a1.93 1.93 0 0 0-1.398-1.572v-5.255a2.755 2.755 0 0 0 2.198-3.12.427.427 0 0 0-.015-.065l3.862-1.574c.11.138.224.25.348.34a1.922 1.922 0 0 0 1.442.352 1.929 1.929 0 0 0 1.27-.77c.306-.42.431-.932.352-1.443"/>
</svg>
