<?xml version="1.0" encoding="UTF-8"?>
<svg width="144px" height="56px" viewBox="0 0 144 56" version="1.1" xmlns="http://www.w3.org/2000/svg" xmlns:xlink="http://www.w3.org/1999/xlink">
    <!-- Generator: Sketch 48.1 (47250) - http://www.bohemiancoding.com/sketch -->
    <title>icon-payment</title>
    <desc>Created with Sketch.</desc>
    <defs></defs>
    <g id="Page-1" stroke="none" stroke-width="1" fill="none" fill-rule="evenodd">
        <g id="icon-payment">
            <g>
                <rect id="Bounds" x="0" y="0" width="144" height="56"></rect>
                <path d="M87.8006239,12 C96.6228063,12 103.800903,19.1775388 103.800903,27.9997212 C103.800903,36.8224612 96.6228063,44 87.8006239,44 C81.8165531,44 76.3790237,40.6950975 73.6128549,35.3735687 C73.4048345,34.977605 73.5587584,34.4901793 73.9569529,34.2827167 C74.3523589,34.0774848 74.8403423,34.2319664 75.0450165,34.6273724 C77.5340107,39.4107252 82.4210948,42.3826836 87.8006239,42.3826836 C95.7332822,42.3826836 102.183586,35.9312641 102.183586,27.9997212 C102.183586,20.0681783 95.7332822,13.6173164 87.8006239,13.6173164 C81.5410516,13.6173164 76.0432911,17.6187804 74.1197999,23.5749665 L71.169034,33.0669409 C68.9711567,39.6126109 62.8783353,44 56.0002788,44 C47.1780965,44 40,36.8224612 40,27.9997212 C40,19.1775388 47.1780965,12 56.0002788,12 C61.6954635,12 67.0058384,15.0695551 69.85845,20.0112933 C70.0820858,20.3972185 69.9482389,20.8924519 69.5628714,21.1160878 C69.1741578,21.3391659 68.6805974,21.2058767 68.4564039,20.8199516 C65.8943516,16.3756775 61.1199219,13.6173164 56.0002788,13.6173164 C48.0687359,13.6173164 41.616201,20.0681783 41.616201,27.9997212 C41.616201,35.9312641 48.0687359,42.3826836 56.0002788,42.3826836 C62.1834469,42.3826836 67.6605727,38.4392199 69.6292372,32.5700343 L72.5760993,23.0875407 C74.7226686,16.4520818 80.8394709,12 87.8006239,12 Z M59.5190017,24.6760801 C59.5050593,24.6147336 59.121365,23.0676868 56.6228899,22.8050123 L56.6228899,27.2197285 C58.3746109,27.5905959 59.6110215,28.2715419 60.2914097,29.2592203 C60.9461441,30.2167831 60.8491051,31.1196919 60.8056048,31.3583855 C60.6672964,32.4051796 59.6093484,34.2595165 56.6228899,34.566249 L56.6228899,36.1277959 C56.6228899,36.5745098 56.2615033,36.9364541 55.8142317,36.9364541 C55.3680754,36.9364541 55.0066889,36.5745098 55.0066889,36.1277959 L55.0066889,34.5824221 C51.1150909,34.2656512 50.5445686,31.5089632 50.5205877,31.3834818 C50.4386065,30.9451332 50.7258196,30.5218425 51.1663989,30.4398613 C51.6014012,30.3578801 52.0207881,30.641747 52.108904,31.0745186 C52.1306541,31.1676537 52.5249447,32.6940658 55.0066889,32.9550672 L55.0066889,28.5409087 C53.2549678,28.1700413 52.0185573,27.4890953 51.3392844,26.5008592 C50.6812039,25.5432963 50.7810314,24.6409453 50.8223008,24.4022517 C50.9622824,23.3532268 52.0185573,21.5005629 55.0066889,21.1938305 L55.0066889,19.8715349 C55.0066889,19.4253786 55.3680754,19.0628767 55.8142317,19.0628767 C56.2615033,19.0628767 56.6228899,19.4253786 56.6228899,19.8715349 L56.6228899,21.1776573 C60.5150456,21.4944283 61.0850102,24.2505586 61.107318,24.3765977 C61.19153,24.8149462 60.9015284,25.238237 60.4626222,25.3196605 C60.0203698,25.4005263 59.6009829,25.1144286 59.5190017,24.6760801 Z M58.9317485,30.1387058 C59.284212,30.6261315 59.2178463,31.0583454 59.2178463,31.0583454 C59.2117116,31.0862302 59.2078077,31.1113264 59.2039039,31.1392112 C59.2022308,31.1570575 58.9891912,32.6410847 56.6228899,32.9405671 L56.6228899,28.8788721 C57.9898011,29.221297 58.6367277,29.7321459 58.9317485,30.1387058 M52.6978302,25.6213737 C52.3436937,25.133948 52.4128479,24.7011764 52.4106171,24.7011764 C52.4161941,24.6738493 52.421771,24.6465222 52.4234441,24.6208683 C52.4256749,24.6035797 52.6387145,23.1189948 55.0066889,22.8189547 L55.0066889,26.8806497 C53.640893,26.5387825 52.9939664,26.0279336 52.6978302,25.6213737 Z M76.7115216,28.0859966 C79.5808641,25.5033096 84.7144495,26.4904303 86.882769,27.067645 C86.5364402,24.8530368 86.0936301,19.6430471 88.9624148,17.0603601 C89.2702626,16.7826278 89.7415152,16.8077241 90.0192475,17.1155719 C90.2953066,17.4250928 90.2718834,17.8963454 89.9634779,18.1729622 C87.4131372,20.4695516 88.1693721,25.8167343 88.4521236,27.3459349 C89.9439586,27.7803796 95.1862946,29.0904059 97.7316161,26.8010666 C98.0389062,26.5233343 98.5112742,26.5467575 98.7890064,26.8562784 C99.0650656,27.1635686 99.0416424,27.6353788 98.7321215,27.9131111 C95.8638945,30.4957981 90.7308667,29.5092351 88.563105,28.9336935 C88.9111069,31.1516478 89.3561477,36.3621952 86.4823437,38.9387476 C86.1750536,39.2164799 85.702128,39.1908259 85.4260688,38.8835358 C85.1483365,38.5745726 85.1717597,38.1027623 85.4818383,37.8267031 C88.0305059,35.5301138 87.2742711,30.182931 86.9931926,28.6537305 C85.5013576,28.2187281 80.2573485,26.9092595 77.712027,29.1980411 C77.4047369,29.4757734 76.9329267,29.4523502 76.6563098,29.143387 C76.3785775,28.8355391 76.4020007,28.3642866 76.7115216,28.0859966 Z M96.4710574,25.1374057 C96.1581903,25.4195995 95.6763415,25.3961763 95.3924746,25.0805207 L91.4294916,20.6791893 C91.1456247,20.3640914 91.1712787,19.8822426 91.4869342,19.6006065 C91.8014744,19.3161819 92.2833232,19.3418359 92.5649593,19.6552606 L96.5290577,24.0571498 C96.8118092,24.3722477 96.7861552,24.8535388 96.4710574,25.1374057 Z M89.5080639,23.1315987 C89.8214887,22.8477317 90.3033375,22.8733857 90.5872044,23.1884836 L92.8090625,25.65517 C93.0934872,25.9708256 93.0678332,26.4526743 92.7527353,26.7359835 C92.4370798,27.0198505 91.9557887,26.9947542 91.6719218,26.6790986 L89.451179,24.2118545 C89.1678698,23.8973143 89.1929661,23.4154656 89.5080639,23.1315987 Z M78.9755416,30.8647136 C79.2889663,30.5825197 79.7708151,30.6059429 80.054682,30.9215985 L84.0171073,35.3223723 C84.3015319,35.6380278 84.2753202,36.1198766 83.9602224,36.4037435 C83.6451245,36.6859374 83.1638335,36.6602834 82.8816396,36.3468586 L78.918099,31.9449694 C78.6353474,31.6298716 78.6610014,31.1485805 78.9755416,30.8647136 Z M85.9402081,32.8705206 C85.6256679,33.1543875 85.1438192,33.1292912 84.8599522,32.8136357 L82.6380941,30.3469492 C82.3536695,30.0312937 82.3793234,29.5500026 82.6944213,29.2661357 C83.0100769,28.9817111 83.4908102,29.0073651 83.7752348,29.3230206 L85.9954199,31.7902647 C86.2787292,32.1048049 86.2536329,32.5866537 85.9402081,32.8705206 Z" fill="#169AD3"></path>
            </g>
        </g>
    </g>
</svg>