<?xml version="1.0" encoding="UTF-8"?>
<svg width="144px" height="56px" viewBox="0 0 144 56" version="1.1" xmlns="http://www.w3.org/2000/svg" xmlns:xlink="http://www.w3.org/1999/xlink">
    <!-- Generator: Sketch 48.1 (47250) - http://www.bohemiancoding.com/sketch -->
    <title>icon-contact</title>
    <desc>Created with Sketch.</desc>
    <defs></defs>
    <g id="Page-1" stroke="none" stroke-width="1" fill="none" fill-rule="evenodd">
        <g id="icon-contact">
            <g>
                <rect id="Bounds" x="0" y="0" width="144" height="56"></rect>
                <path d="M51.9130739,22.0992515 C52.1032597,22.0992515 52.2939999,22.1741059 52.4365006,22.3221514 C53.8615075,23.8020516 54.623914,25.7493762 54.5851006,27.8075963 C54.5462871,29.8647075 53.7101352,31.7826449 52.230235,33.2070973 C52.0899522,33.3434988 51.9080837,33.411145 51.7262151,33.411145 C51.5376927,33.411145 51.3469525,33.336845 51.2033429,33.1876906 C50.9249952,32.8999168 50.9333124,32.4397006 51.2227496,32.160244 C52.4231932,31.006931 53.101319,29.4510674 53.1312608,27.779318 C53.1634205,26.1108955 52.5446237,24.5295259 51.3896473,23.3301913 C51.1112996,23.0407541 51.1185078,22.5810923 51.409054,22.3027447 C51.5498912,22.1663432 51.7312054,22.0992515 51.9130739,22.0992515 Z M60.1999051,12.6471306 C60.3900909,12.6471306 60.5808311,12.721985 60.7238863,12.8689215 C64.6102184,16.907735 66.69339,22.2240643 66.5880393,27.8436928 C66.4810252,33.4627668 64.2010141,38.6981425 60.1633096,42.587247 C60.0224723,42.721985 59.8417127,42.7907402 59.6581807,42.7907402 C59.4696584,42.7907402 59.2778092,42.7158858 59.135863,42.5667314 C58.8575153,42.2778486 58.8663869,41.8181869 59.1552697,41.5398392 C62.914072,37.9207652 65.036057,33.0469088 65.1353085,27.8176324 C65.2328965,22.5861381 63.2944435,17.6346548 59.6764784,13.8769615 C59.3981308,13.5886332 59.4070024,13.1289714 59.6964396,12.8495148 C59.8372769,12.7142223 60.018591,12.6471306 60.1999051,12.6471306 Z M56.7982971,18.8227336 C59.1343104,21.2480177 60.3863204,24.44458 60.3214466,27.8213474 C60.2593451,31.1975603 58.8870135,34.3425561 56.4606204,36.6802329 C56.3208921,36.8144164 56.1379145,36.8820627 55.9577094,36.8820627 C55.7664147,36.8820627 55.57512,36.8072082 55.4331738,36.6602717 C55.1564895,36.3708345 55.1648067,35.9106182 55.4542439,35.6328251 C57.6006259,33.5651788 58.8121591,30.7811478 58.8681613,27.793069 C58.9263814,24.8049903 57.8179811,21.97771 55.7514438,19.8307735 C55.4730961,19.5413363 55.4814133,19.0816745 55.7708505,18.8033269 C55.9111333,18.6685889 56.0930019,18.6009426 56.274316,18.6009426 C56.4650562,18.6009426 56.6557964,18.6746881 56.7982971,18.8227336 Z M92.0157632,38.2600499 C92.4183138,38.2600499 92.7421286,38.5860826 92.7421286,38.9869698 C92.7421286,42.4313834 90.8131017,45.520377 87.7102461,47.0507347 L87.639273,47.0795675 L85.8083886,47.7499307 C85.1069747,47.9157194 84.4083332,48 83.7302073,48 C79.5156245,48 75.81227,45.0124757 74.9206703,40.8938176 L70.7227219,21.4909897 C70.006337,18.1840865 70.8147651,14.7768228 72.9395225,12.1430552 C75.0642799,9.5092875 78.2225832,8 81.6065588,8 C83.1025389,8 84.5541607,8.29220959 85.922611,8.87219296 L87.7335342,9.8453008 C90.8929464,11.9600776 92.7421286,15.4194622 92.7421286,19.1355697 C92.7421286,19.5364569 92.4183138,19.8613806 92.0157632,19.8613806 C91.6154305,19.8613806 91.2905067,19.5364569 91.2905067,19.1355697 C91.2905067,15.9046299 89.6803043,12.8971444 86.9827718,11.0873302 L85.2943881,10.1790962 C84.16769,9.70668145 82.9062539,9.45162185 81.6065588,9.45162185 C78.6639472,9.45162185 75.9176207,10.7662878 74.0695475,13.0562795 C72.2220288,15.3457167 71.5206148,18.307735 72.1427385,21.1832548 L76.3417959,40.5860826 C77.0881225,44.0399224 80.1954138,46.5472692 83.7302073,46.5472692 C84.2819123,46.5472692 84.854133,46.479623 85.4307895,46.3448849 L87.099212,45.729415 C89.6841857,44.4402551 91.2905067,41.8597172 91.2905067,38.9869698 C91.2905067,38.5860826 91.6154305,38.2600499 92.0157632,38.2600499 Z M87.2804707,25.5574161 C85.7240526,25.5574161 84.4548538,26.825506 84.4548538,28.3841419 C84.4548538,29.9422235 85.7240526,31.2097588 87.2804707,31.2097588 L88.007945,31.2097588 L88.007945,33.6843915 C88.007945,34.0852786 87.6830213,34.4102024 87.2804707,34.4102024 C86.880138,34.4102024 86.5552142,34.0852786 86.5552142,33.6843915 L86.5552142,32.6003881 C84.5407978,32.2555032 83.002123,30.4950374 83.002123,28.3841419 C83.002123,26.0237316 84.9217238,24.1046853 87.2804707,24.1046853 L87.4279617,24.1046853 L87.4279617,19.1354588 C87.4279617,15.9255891 84.817482,13.3123371 81.6065034,13.3123371 C79.837166,13.3123371 78.1870412,14.1035764 77.0747596,15.4803438 C75.9641413,16.8571112 75.542184,18.6380926 75.9147928,20.3675076 L78.841879,33.8889936 C78.9261596,34.2815636 78.6777537,34.6680344 78.2862927,34.7523149 C78.2347263,34.7645134 78.1831599,34.7695037 78.1315935,34.7695037 C77.7972436,34.7695037 77.4961624,34.5366232 77.4218624,34.1967286 L74.4953307,20.6741336 C74.0279062,18.5138897 74.5563232,16.2882174 75.9441801,14.5682284 C77.3325916,12.8471306 79.3963565,11.8607153 81.6065034,11.8607153 C85.6170385,11.8607153 88.8806925,15.1232603 88.8806925,19.1354588 L88.8806925,25.5574161 L87.2804707,25.5574161 Z" fill="#BC2F7F"></path>
            </g>
        </g>
    </g>
</svg>